<svg class="header__StyledLogo-sc-6nbxvu-6 kOgZrC" width="121" height="31" viewBox="0 0 121 31" fill="none"><path d="M43.551 7.12767C41.9 7.12767 39.8373 7.88519 39.6059 9.51452L38.5686 16.8068C38.3882 18.0797 37.5314 19.4513 36.1431 19.4513C34.7549 19.4513 34.5804 18.0138 34.7431 16.8707L35.7902 9.51258C36.0216 7.88131 35.3863 7.12573 33.7353 7.12573C32.0843 7.12573 30.0216 7.88325 29.7902 9.51258L28.7431 16.8707C28.0608 21.6716 29.1824 24.0197 32.9843 24.0197C34.9824 24.0197 36.6902 22.9464 37.902 21.505L37.8843 21.6328C37.6529 23.2641 38.2647 24.0197 39.9157 24.0197C41.5667 24.0197 43.653 23.2641 43.8863 21.6328L45.6098 9.51258C45.8392 7.88518 45.202 7.12767 43.551 7.12767Z" fill="white"></path><path d="M73.6329 7.12744C71.9819 7.12744 69.9192 7.88496 69.6878 9.51429L67.9643 21.6345C67.7329 23.2658 68.3447 24.0214 69.9957 24.0214C71.6467 24.0214 73.7329 23.2658 73.9663 21.6345L75.6898 9.51429C75.9192 7.88496 75.2819 7.12744 73.6329 7.12744Z" fill="white"></path><path d="M66.2824 7.45109H63.8294L64.3059 4.1033C64.5373 2.47203 63.2333 2.14655 61.5098 2.67352C61.2608 2.74908 60.6137 2.99512 60.3765 3.0978C58.9686 3.70808 58.2314 4.62252 58.0334 6.01937L57.8294 7.45303H57.4902C56.2883 7.45303 55.5412 8.77239 55.3726 9.96C55.2039 11.1476 55.6745 11.7734 56.8765 11.7734H57.2157L56.3981 17.5197C55.8236 21.563 56.5196 24.0254 60.5843 24.0254C63.4608 24.0254 66.3275 22.1791 66.5804 20.416C66.7118 19.49 66.1706 18.7131 65.5059 18.7131C64.7451 18.7131 64.1941 19.333 63.3353 19.333C62.5431 19.333 62.2216 18.777 62.4275 17.3356L63.2196 11.7714H65.6706C66.8726 11.7714 67.6118 10.332 67.7804 9.14436C67.9451 7.95481 67.4843 7.45109 66.2824 7.45109Z" fill="white"></path><path d="M88.5359 6.89893C86.8712 6.89893 85.33 7.80174 84.1104 9.2664C84.1868 7.80949 83.5966 7.12754 82.0339 7.12754C80.3829 7.12754 78.3202 7.88311 78.0868 9.51439L75.381 28.5395C75.1496 30.1707 75.7633 30.9263 77.4123 30.9263C79.0633 30.9263 81.1496 30.1707 81.3829 28.5395L82.328 21.8923C83.1437 23.1962 84.4476 23.8839 86.1221 23.8839C90.0574 23.8839 92.7888 20.571 93.5261 15.3905C94.2261 10.4579 92.2065 6.89893 88.5359 6.89893ZM87.5359 15.7818C87.2123 18.0505 86.1535 19.891 84.5123 19.891C83.5045 19.891 82.7457 19.2032 83.0006 17.4131L83.4966 13.9297C83.7123 12.4069 84.6359 11.6726 85.5888 11.6726C86.9829 11.6746 87.8594 13.5131 87.5359 15.7818Z" fill="white"></path><path d="M73.2943 5.89353C75.4491 5.60486 77.0688 4.21188 77.2589 2.48568C77.4511 0.759475 76.0962 -0.232463 73.9413 0.0562067C71.7864 0.344876 70.1668 1.73785 69.9766 3.46406C69.7845 5.19026 71.1413 6.1822 73.2943 5.89353Z" fill="white"></path><path d="M116.159 7.12744C114.794 7.12744 113.561 7.73772 113.404 8.84396C113.251 9.90952 113.955 10.4384 114.331 11.3102C115.539 14.1059 114.008 18.9881 111.535 22.4599C112.59 16.0142 112.208 11.4129 110.855 9.03963C110.165 7.83071 109.284 7.12744 107.888 7.12744C105.774 7.12744 103.953 8.14844 103.953 9.52592C103.953 10.3977 104.376 10.9557 104.884 12.2421C105.669 14.2376 106.529 18.4766 106.529 22.1925C106.529 24.8661 105.996 27.1037 105.008 27.1037C103.643 27.1037 103.965 24.6568 101.641 24.6568C100.325 24.6568 98.8921 25.6197 98.8921 27.3324C98.8921 29.7831 101.267 30.9998 104.088 30.9998C110.476 30.9998 118.441 24.095 119.861 14.1098C120.631 8.66572 118.11 7.12744 116.159 7.12744Z" fill="white"></path><path d="M102.634 21.0089C102.634 19.5346 100.708 20.2999 100.855 19.2537L103.255 2.38685C103.488 0.757515 102.851 0 101.2 0C99.5493 0 97.4865 0.757515 97.2552 2.38685L94.8258 19.614C94.5336 21.6676 94.2787 24.0235 97.4728 24.0235C100.341 24.0235 102.634 22.3961 102.634 21.0089Z" fill="white"></path><path d="M52.9222 0C51.2712 0 49.2085 0.757515 48.9751 2.38685L46.5457 19.614C46.2536 21.6676 45.9987 24.0235 49.1928 24.0235C52.0614 24.0235 54.3555 22.3961 54.3555 21.0089C54.3555 19.5346 52.43 20.2999 52.5771 19.2537L54.9771 2.38685C55.2085 0.757515 54.5712 0 52.9222 0Z" fill="white"></path><path d="M22.1275 0C18.7098 0 16.0549 2.60771 14.9118 6.21318C13.7294 5.05075 12.1412 4.4676 10.4334 4.4676C1.93728 4.4676 0.586303 13.1994 0.0157148 21.6367C-0.0940891 23.266 0.351009 24.0235 2.00199 24.0235C3.65297 24.0235 5.90395 23.2544 6.13336 21.6367C6.51964 18.9379 6.57454 18.562 6.96866 15.2879C7.3765 11.9071 8.2863 9.35948 9.65101 9.35948C10.5863 9.35948 10.8902 10.0821 10.8902 11.4325C10.8902 13.2362 10.3255 15.8342 9.89022 19.5385C9.69807 21.1717 10.251 22.0048 11.9 22.0048C13.551 22.0048 15.9138 21.1736 16.1236 19.5385C16.4255 17.1807 16.6981 15.1774 16.9745 13.2342C17.7706 7.63521 18.7824 6.31779 20.1471 6.31779C21 6.31779 21.3569 7.023 21.3098 8.3811C21.2314 10.6536 19.8471 18.7306 19.5471 21.6367C19.3765 23.2815 19.9275 24.0235 21.5785 24.0235C23.2294 24.0235 25.5314 23.264 25.7804 21.6367C26.3079 18.1901 26.8 14.1874 27.2687 10.4134C28.0118 4.45403 27.5098 0 22.1275 0Z" fill="white"></path><path d="M43.551 7.12767C41.9 7.12767 39.8373 7.88519 39.6059 9.51452L38.5686 16.8068C38.3882 18.0797 37.5314 19.4513 36.1431 19.4513C34.7549 19.4513 34.5804 18.0138 34.7431 16.8707L35.7902 9.51258C36.0216 7.88131 35.3863 7.12573 33.7353 7.12573C32.0843 7.12573 30.0216 7.88325 29.7902 9.51258L28.7431 16.8707C28.0608 21.6716 29.1824 24.0197 32.9843 24.0197C34.9824 24.0197 36.6902 22.9464 37.902 21.505L37.8843 21.6328C37.6529 23.2641 38.2647 24.0197 39.9157 24.0197C41.5667 24.0197 43.653 23.2641 43.8863 21.6328L45.6098 9.51258C45.8392 7.88518 45.202 7.12767 43.551 7.12767Z" fill="white"></path><path d="M73.633 7.12744C71.982 7.12744 69.9193 7.88496 69.6879 9.51429L67.9644 21.6345C67.733 23.2658 68.3448 24.0214 69.9957 24.0214C71.6467 24.0214 73.733 23.2658 73.9663 21.6345L75.6898 9.51429C75.9193 7.88496 75.282 7.12744 73.633 7.12744Z" fill="white"></path><path d="M66.2823 7.45109H63.8294L64.3059 4.1033C64.5372 2.47203 63.2333 2.14655 61.5098 2.67352C61.2608 2.74908 60.6137 2.99512 60.3765 3.0978C58.9686 3.70808 58.2314 4.62252 58.0333 6.01937L57.8294 7.45303H57.4902C56.2883 7.45303 55.5412 8.77239 55.3726 9.96C55.2039 11.1476 55.6745 11.7734 56.8765 11.7734H57.2157L56.3981 17.5197C55.8236 21.563 56.5196 24.0254 60.5843 24.0254C63.4608 24.0254 66.3274 22.1791 66.5804 20.416C66.7117 19.49 66.1706 18.7131 65.5059 18.7131C64.7451 18.7131 64.1941 19.333 63.3353 19.333C62.5431 19.333 62.2216 18.777 62.4274 17.3356L63.2196 11.7714H65.6706C66.8725 11.7714 67.6117 10.332 67.7804 9.14436C67.9451 7.95481 67.4843 7.45109 66.2823 7.45109Z" fill="white"></path><path d="M88.5359 6.89893C86.8712 6.89893 85.33 7.80174 84.1104 9.2664C84.1868 7.80949 83.5966 7.12754 82.0339 7.12754C80.3829 7.12754 78.3202 7.88311 78.0868 9.51439L75.381 28.5395C75.1496 30.1707 75.7633 30.9263 77.4123 30.9263C79.0633 30.9263 81.1496 30.1707 81.3829 28.5395L82.328 21.8923C83.1437 23.1962 84.4476 23.8839 86.1221 23.8839C90.0574 23.8839 92.7888 20.571 93.5261 15.3905C94.2261 10.4579 92.2065 6.89893 88.5359 6.89893ZM87.5359 15.7818C87.2123 18.0505 86.1535 19.891 84.5123 19.891C83.5045 19.891 82.7457 19.2032 83.0006 17.4131L83.4966 13.9297C83.7123 12.4069 84.6359 11.6726 85.5888 11.6726C86.9829 11.6746 87.8594 13.5131 87.5359 15.7818Z" fill="white"></path><path d="M73.2943 5.89353C75.4491 5.60486 77.0688 4.21188 77.2589 2.48568C77.4511 0.759475 76.0962 -0.232463 73.9413 0.0562067C71.7864 0.344876 70.1668 1.73785 69.9766 3.46406C69.7845 5.19026 71.1413 6.1822 73.2943 5.89353Z" fill="white"></path><path d="M116.159 7.12744C114.794 7.12744 113.561 7.73772 113.404 8.84396C113.251 9.90952 113.955 10.4384 114.331 11.3102C115.539 14.1059 114.008 18.9881 111.535 22.4599C112.59 16.0142 112.208 11.4129 110.855 9.03963C110.165 7.83071 109.284 7.12744 107.888 7.12744C105.775 7.12744 103.953 8.14844 103.953 9.52592C103.953 10.3977 104.376 10.9557 104.884 12.2421C105.669 14.2376 106.529 18.4766 106.529 22.1925C106.529 24.8661 105.996 27.1037 105.008 27.1037C103.643 27.1037 103.965 24.6568 101.641 24.6568C100.325 24.6568 98.8922 25.6197 98.8922 27.3324C98.8922 29.7831 101.267 30.9998 104.088 30.9998C110.476 30.9998 118.441 24.095 119.861 14.1098C120.631 8.66572 118.11 7.12744 116.159 7.12744Z" fill="white"></path><path d="M102.634 21.0089C102.634 19.5346 100.708 20.2999 100.855 19.2537L103.255 2.38685C103.488 0.757515 102.851 0 101.2 0C99.5493 0 97.4865 0.757515 97.2552 2.38685L94.8258 19.614C94.5336 21.6676 94.2787 24.0235 97.4728 24.0235C100.341 24.0235 102.634 22.3961 102.634 21.0089Z" fill="white"></path><path d="M52.9222 0C51.2712 0 49.2085 0.757515 48.9751 2.38685L46.5457 19.614C46.2536 21.6676 45.9987 24.0235 49.1928 24.0235C52.0614 24.0235 54.3555 22.3961 54.3555 21.0089C54.3555 19.5346 52.43 20.2999 52.5771 19.2537L54.9771 2.38685C55.2085 0.757515 54.5712 0 52.9222 0Z" fill="white"></path><path d="M22.1275 0C18.7098 0 16.0549 2.60771 14.9118 6.21318C13.7294 5.05075 12.1412 4.4676 10.4334 4.4676C1.93728 4.4676 0.586303 13.1994 0.0157148 21.6367C-0.0940892 23.266 0.351009 24.0235 2.00199 24.0235C3.65297 24.0235 5.90395 23.2544 6.13336 21.6367C6.51964 18.9379 6.57454 18.562 6.96866 15.2879C7.3765 11.9071 8.2863 9.35948 9.65101 9.35948C10.5863 9.35948 10.8902 10.0821 10.8902 11.4325C10.8902 13.2362 10.3255 15.8342 9.89023 19.5385C9.69807 21.1717 10.251 22.0048 11.9 22.0048C13.551 22.0048 15.9138 21.1736 16.1236 19.5385C16.4255 17.1807 16.6981 15.1774 16.9745 13.2342C17.7706 7.63521 18.7824 6.31779 20.1471 6.31779C21 6.31779 21.3569 7.023 21.3098 8.3811C21.2314 10.6536 19.8471 18.7306 19.5471 21.6367C19.3765 23.2815 19.9275 24.0235 21.5785 24.0235C23.2294 24.0235 25.5314 23.264 25.7804 21.6367C26.3079 18.1901 26.8 14.1874 27.2687 10.4134C28.0118 4.45403 27.5098 0 22.1275 0Z" fill="white"></path></svg>